<svg width="534" height="534" viewBox="0 0 534 534" fill="none" xmlns="http://www.w3.org/2000/svg">
<g filter="url(#filter0_d_503_62)">
<path d="M201.295 24.5185C243.101 13.3167 287.099 13.16 328.984 24.0639L303.79 120.838C278.659 114.296 252.261 114.39 227.177 121.111L201.295 24.5185Z" fill="#FF7878"/>
<path d="M201.295 24.5185C243.101 13.3167 287.099 13.16 328.984 24.0639L303.79 120.838C278.659 114.296 252.261 114.39 227.177 121.111L201.295 24.5185Z" stroke="white" stroke-width="7"/>
</g>
<g filter="url(#filter1_d_503_62)">
<path d="M330.705 24.5186C372.511 35.7204 410.692 57.5837 441.513 87.969L371.308 159.181C352.815 140.95 329.906 127.832 304.823 121.111L330.705 24.5186Z" fill="#FF4F4F"/>
<path d="M330.705 24.5186C372.511 35.7204 410.692 57.5837 441.513 87.969L371.308 159.181C352.815 140.95 329.906 127.832 304.823 121.111L330.705 24.5186Z" stroke="white" stroke-width="7"/>
</g>
<g filter="url(#filter2_d_503_62)">
<path d="M442.777 89.2234C473.381 119.827 495.515 157.852 507.015 199.577L410.609 226.146C403.709 201.111 390.428 178.296 372.066 159.934L442.777 89.2234Z" fill="#CCEFC0"/>
<path d="M442.777 89.2234C473.381 119.827 495.515 157.852 507.015 199.577L410.609 226.146C403.709 201.111 390.428 178.296 372.066 159.934L442.777 89.2234Z" stroke="white" stroke-width="7"/>
</g>
<g filter="url(#filter3_d_503_62)">
<path d="M507.481 201.295C518.683 243.101 518.84 287.099 507.936 328.984L411.162 303.79C417.704 278.659 417.61 252.261 410.889 227.177L507.481 201.295Z" fill="#CCEFC0"/>
<path d="M507.481 201.295C518.683 243.101 518.84 287.099 507.936 328.984L411.162 303.79C417.704 278.659 417.61 252.261 410.889 227.177L507.481 201.295Z" stroke="white" stroke-width="7"/>
</g>
<g filter="url(#filter4_d_503_62)">
<path d="M507.481 330.705C496.28 372.511 474.416 410.692 444.031 441.513L372.819 371.308C391.05 352.815 404.168 329.906 410.889 304.823L507.481 330.705Z" fill="#CCEFC0"/>
<path d="M507.481 330.705C496.28 372.511 474.416 410.692 444.031 441.513L372.819 371.308C391.05 352.815 404.168 329.906 410.889 304.823L507.481 330.705Z" stroke="white" stroke-width="7"/>
</g>
<g filter="url(#filter5_d_503_62)">
<path d="M442.777 442.777C412.173 473.381 374.148 495.515 332.423 507.015L305.854 410.609C330.889 403.709 353.704 390.428 372.066 372.066L442.777 442.777Z" fill="#CCEFC0"/>
<path d="M442.777 442.777C412.173 473.381 374.148 495.515 332.423 507.015L305.854 410.609C330.889 403.709 353.704 390.428 372.066 372.066L442.777 442.777Z" stroke="white" stroke-width="7"/>
</g>
<g filter="url(#filter6_d_503_62)">
<path d="M330.705 507.481C288.899 518.683 244.901 518.84 203.017 507.936L228.21 411.162C253.341 417.704 279.739 417.61 304.823 410.889L330.705 507.481Z" fill="#5C9E45"/>
<path d="M330.705 507.481C288.899 518.683 244.901 518.84 203.017 507.936L228.21 411.162C253.341 417.704 279.739 417.61 304.823 410.889L330.705 507.481Z" stroke="white" stroke-width="7"/>
</g>
<g filter="url(#filter7_d_503_62)">
<path d="M201.295 507.481C159.489 496.28 121.308 474.416 90.4866 444.031L160.692 372.819C179.185 391.05 202.094 404.168 227.177 410.889L201.295 507.481Z" fill="#CCEFC0"/>
<path d="M201.295 507.481C159.489 496.28 121.308 474.416 90.4866 444.031L160.692 372.819C179.185 391.05 202.094 404.168 227.177 410.889L201.295 507.481Z" stroke="white" stroke-width="7"/>
</g>
<g filter="url(#filter8_d_503_62)">
<path d="M89.2233 442.777C58.6193 412.173 36.4847 374.148 24.9854 332.423L121.391 305.854C128.291 330.889 141.572 353.704 159.934 372.066L89.2233 442.777Z" fill="#CCEFC0"/>
<path d="M89.2233 442.777C58.6193 412.173 36.4847 374.148 24.9854 332.423L121.391 305.854C128.291 330.889 141.572 353.704 159.934 372.066L89.2233 442.777Z" stroke="white" stroke-width="7"/>
</g>
<g filter="url(#filter9_d_503_62)">
<path d="M24.5185 330.705C13.3167 288.899 13.16 244.901 24.0639 203.017L120.838 228.21C114.296 253.341 114.39 279.739 121.111 304.823L24.5185 330.705Z" fill="#CCEFC0"/>
<path d="M24.5185 330.705C13.3167 288.899 13.16 244.901 24.0639 203.017L120.838 228.21C114.296 253.341 114.39 279.739 121.111 304.823L24.5185 330.705Z" stroke="white" stroke-width="7"/>
</g>
<g filter="url(#filter10_d_503_62)">
<path d="M24.5185 201.295C35.7204 159.489 57.5836 121.308 87.9689 90.4867L159.181 160.692C140.95 179.185 127.832 202.094 121.111 227.177L24.5185 201.295Z" fill="#FFADAD"/>
<path d="M24.5185 201.295C35.7204 159.489 57.5836 121.308 87.9689 90.4867L159.181 160.692C140.95 179.185 127.832 202.094 121.111 227.177L24.5185 201.295Z" stroke="white" stroke-width="7"/>
</g>
<g filter="url(#filter11_d_503_62)">
<path d="M89.2233 89.2233C119.827 58.6193 157.852 36.4847 199.577 24.9855L226.146 121.391C201.111 128.291 178.296 141.572 159.934 159.934L89.2233 89.2233Z" fill="#FFADAD"/>
<path d="M89.2233 89.2233C119.827 58.6193 157.852 36.4847 199.577 24.9855L226.146 121.391C201.111 128.291 178.296 141.572 159.934 159.934L89.2233 89.2233Z" stroke="white" stroke-width="7"/>
</g>
<path d="M261 266C261 268.761 263.239 271 266 271C268.761 271 271 268.761 271 266L261 266ZM266 142L237.132 192L294.868 192L266 142ZM271 266L271 187L261 187L261 266L271 266Z" fill="black"/>
<defs>
<filter id="filter0_d_503_62" x="185.009" y="0.5" width="162.244" height="138.898" filterUnits="userSpaceOnUse" color-interpolation-filters="sRGB">
<feFlood flood-opacity="0" result="BackgroundImageFix"/>
<feColorMatrix in="SourceAlpha" type="matrix" values="0 0 0 0 0 0 0 0 0 0 0 0 0 0 0 0 0 0 127 0" result="hardAlpha"/>
<feOffset dx="1" dy="1"/>
<feGaussianBlur stdDeviation="6.5"/>
<feComposite in2="hardAlpha" operator="out"/>
<feColorMatrix type="matrix" values="0 0 0 0 0 0 0 0 0 0 0 0 0 0 0 0 0 0 0.25 0"/>
<feBlend mode="normal" in2="BackgroundImageFix" result="effect1_dropShadow_503_62"/>
<feBlend mode="normal" in="SourceGraphic" in2="effect1_dropShadow_503_62" result="shape"/>
</filter>
<filter id="filter1_d_503_62" x="288.536" y="8.23193" width="171.927" height="169.899" filterUnits="userSpaceOnUse" color-interpolation-filters="sRGB">
<feFlood flood-opacity="0" result="BackgroundImageFix"/>
<feColorMatrix in="SourceAlpha" type="matrix" values="0 0 0 0 0 0 0 0 0 0 0 0 0 0 0 0 0 0 127 0" result="hardAlpha"/>
<feOffset dx="1" dy="1"/>
<feGaussianBlur stdDeviation="6.5"/>
<feComposite in2="hardAlpha" operator="out"/>
<feColorMatrix type="matrix" values="0 0 0 0 0 0 0 0 0 0 0 0 0 0 0 0 0 0 0.25 0"/>
<feBlend mode="normal" in2="BackgroundImageFix" result="effect1_dropShadow_503_62"/>
<feBlend mode="normal" in="SourceGraphic" in2="effect1_dropShadow_503_62" result="shape"/>
</filter>
<filter id="filter2_d_503_62" x="355.116" y="72.2737" width="170.202" height="172.177" filterUnits="userSpaceOnUse" color-interpolation-filters="sRGB">
<feFlood flood-opacity="0" result="BackgroundImageFix"/>
<feColorMatrix in="SourceAlpha" type="matrix" values="0 0 0 0 0 0 0 0 0 0 0 0 0 0 0 0 0 0 127 0" result="hardAlpha"/>
<feOffset dx="1" dy="1"/>
<feGaussianBlur stdDeviation="6.5"/>
<feComposite in2="hardAlpha" operator="out"/>
<feColorMatrix type="matrix" values="0 0 0 0 0 0 0 0 0 0 0 0 0 0 0 0 0 0 0.25 0"/>
<feBlend mode="normal" in2="BackgroundImageFix" result="effect1_dropShadow_503_62"/>
<feBlend mode="normal" in="SourceGraphic" in2="effect1_dropShadow_503_62" result="shape"/>
</filter>
<filter id="filter3_d_503_62" x="394.602" y="185.009" width="138.898" height="162.244" filterUnits="userSpaceOnUse" color-interpolation-filters="sRGB">
<feFlood flood-opacity="0" result="BackgroundImageFix"/>
<feColorMatrix in="SourceAlpha" type="matrix" values="0 0 0 0 0 0 0 0 0 0 0 0 0 0 0 0 0 0 127 0" result="hardAlpha"/>
<feOffset dx="1" dy="1"/>
<feGaussianBlur stdDeviation="6.5"/>
<feComposite in2="hardAlpha" operator="out"/>
<feColorMatrix type="matrix" values="0 0 0 0 0 0 0 0 0 0 0 0 0 0 0 0 0 0 0.25 0"/>
<feBlend mode="normal" in2="BackgroundImageFix" result="effect1_dropShadow_503_62"/>
<feBlend mode="normal" in="SourceGraphic" in2="effect1_dropShadow_503_62" result="shape"/>
</filter>
<filter id="filter4_d_503_62" x="355.869" y="288.536" width="169.899" height="171.927" filterUnits="userSpaceOnUse" color-interpolation-filters="sRGB">
<feFlood flood-opacity="0" result="BackgroundImageFix"/>
<feColorMatrix in="SourceAlpha" type="matrix" values="0 0 0 0 0 0 0 0 0 0 0 0 0 0 0 0 0 0 127 0" result="hardAlpha"/>
<feOffset dx="1" dy="1"/>
<feGaussianBlur stdDeviation="6.5"/>
<feComposite in2="hardAlpha" operator="out"/>
<feColorMatrix type="matrix" values="0 0 0 0 0 0 0 0 0 0 0 0 0 0 0 0 0 0 0.25 0"/>
<feBlend mode="normal" in2="BackgroundImageFix" result="effect1_dropShadow_503_62"/>
<feBlend mode="normal" in="SourceGraphic" in2="effect1_dropShadow_503_62" result="shape"/>
</filter>
<filter id="filter5_d_503_62" x="289.55" y="355.116" width="172.177" height="170.202" filterUnits="userSpaceOnUse" color-interpolation-filters="sRGB">
<feFlood flood-opacity="0" result="BackgroundImageFix"/>
<feColorMatrix in="SourceAlpha" type="matrix" values="0 0 0 0 0 0 0 0 0 0 0 0 0 0 0 0 0 0 127 0" result="hardAlpha"/>
<feOffset dx="1" dy="1"/>
<feGaussianBlur stdDeviation="6.5"/>
<feComposite in2="hardAlpha" operator="out"/>
<feColorMatrix type="matrix" values="0 0 0 0 0 0 0 0 0 0 0 0 0 0 0 0 0 0 0.25 0"/>
<feBlend mode="normal" in2="BackgroundImageFix" result="effect1_dropShadow_503_62"/>
<feBlend mode="normal" in="SourceGraphic" in2="effect1_dropShadow_503_62" result="shape"/>
</filter>
<filter id="filter6_d_503_62" x="186.748" y="394.602" width="162.244" height="138.898" filterUnits="userSpaceOnUse" color-interpolation-filters="sRGB">
<feFlood flood-opacity="0" result="BackgroundImageFix"/>
<feColorMatrix in="SourceAlpha" type="matrix" values="0 0 0 0 0 0 0 0 0 0 0 0 0 0 0 0 0 0 127 0" result="hardAlpha"/>
<feOffset dx="1" dy="1"/>
<feGaussianBlur stdDeviation="6.5"/>
<feComposite in2="hardAlpha" operator="out"/>
<feColorMatrix type="matrix" values="0 0 0 0 0 0 0 0 0 0 0 0 0 0 0 0 0 0 0.25 0"/>
<feBlend mode="normal" in2="BackgroundImageFix" result="effect1_dropShadow_503_62"/>
<feBlend mode="normal" in="SourceGraphic" in2="effect1_dropShadow_503_62" result="shape"/>
</filter>
<filter id="filter7_d_503_62" x="73.5371" y="355.869" width="171.927" height="169.899" filterUnits="userSpaceOnUse" color-interpolation-filters="sRGB">
<feFlood flood-opacity="0" result="BackgroundImageFix"/>
<feColorMatrix in="SourceAlpha" type="matrix" values="0 0 0 0 0 0 0 0 0 0 0 0 0 0 0 0 0 0 127 0" result="hardAlpha"/>
<feOffset dx="1" dy="1"/>
<feGaussianBlur stdDeviation="6.5"/>
<feComposite in2="hardAlpha" operator="out"/>
<feColorMatrix type="matrix" values="0 0 0 0 0 0 0 0 0 0 0 0 0 0 0 0 0 0 0.25 0"/>
<feBlend mode="normal" in2="BackgroundImageFix" result="effect1_dropShadow_503_62"/>
<feBlend mode="normal" in="SourceGraphic" in2="effect1_dropShadow_503_62" result="shape"/>
</filter>
<filter id="filter8_d_503_62" x="8.6814" y="289.55" width="170.202" height="172.177" filterUnits="userSpaceOnUse" color-interpolation-filters="sRGB">
<feFlood flood-opacity="0" result="BackgroundImageFix"/>
<feColorMatrix in="SourceAlpha" type="matrix" values="0 0 0 0 0 0 0 0 0 0 0 0 0 0 0 0 0 0 127 0" result="hardAlpha"/>
<feOffset dx="1" dy="1"/>
<feGaussianBlur stdDeviation="6.5"/>
<feComposite in2="hardAlpha" operator="out"/>
<feColorMatrix type="matrix" values="0 0 0 0 0 0 0 0 0 0 0 0 0 0 0 0 0 0 0.25 0"/>
<feBlend mode="normal" in2="BackgroundImageFix" result="effect1_dropShadow_503_62"/>
<feBlend mode="normal" in="SourceGraphic" in2="effect1_dropShadow_503_62" result="shape"/>
</filter>
<filter id="filter9_d_503_62" x="0.5" y="186.748" width="138.898" height="162.244" filterUnits="userSpaceOnUse" color-interpolation-filters="sRGB">
<feFlood flood-opacity="0" result="BackgroundImageFix"/>
<feColorMatrix in="SourceAlpha" type="matrix" values="0 0 0 0 0 0 0 0 0 0 0 0 0 0 0 0 0 0 127 0" result="hardAlpha"/>
<feOffset dx="1" dy="1"/>
<feGaussianBlur stdDeviation="6.5"/>
<feComposite in2="hardAlpha" operator="out"/>
<feColorMatrix type="matrix" values="0 0 0 0 0 0 0 0 0 0 0 0 0 0 0 0 0 0 0.25 0"/>
<feBlend mode="normal" in2="BackgroundImageFix" result="effect1_dropShadow_503_62"/>
<feBlend mode="normal" in="SourceGraphic" in2="effect1_dropShadow_503_62" result="shape"/>
</filter>
<filter id="filter10_d_503_62" x="8.23193" y="73.5371" width="169.899" height="171.927" filterUnits="userSpaceOnUse" color-interpolation-filters="sRGB">
<feFlood flood-opacity="0" result="BackgroundImageFix"/>
<feColorMatrix in="SourceAlpha" type="matrix" values="0 0 0 0 0 0 0 0 0 0 0 0 0 0 0 0 0 0 127 0" result="hardAlpha"/>
<feOffset dx="1" dy="1"/>
<feGaussianBlur stdDeviation="6.5"/>
<feComposite in2="hardAlpha" operator="out"/>
<feColorMatrix type="matrix" values="0 0 0 0 0 0 0 0 0 0 0 0 0 0 0 0 0 0 0.25 0"/>
<feBlend mode="normal" in2="BackgroundImageFix" result="effect1_dropShadow_503_62"/>
<feBlend mode="normal" in="SourceGraphic" in2="effect1_dropShadow_503_62" result="shape"/>
</filter>
<filter id="filter11_d_503_62" x="72.2734" y="8.6814" width="172.177" height="170.202" filterUnits="userSpaceOnUse" color-interpolation-filters="sRGB">
<feFlood flood-opacity="0" result="BackgroundImageFix"/>
<feColorMatrix in="SourceAlpha" type="matrix" values="0 0 0 0 0 0 0 0 0 0 0 0 0 0 0 0 0 0 127 0" result="hardAlpha"/>
<feOffset dx="1" dy="1"/>
<feGaussianBlur stdDeviation="6.5"/>
<feComposite in2="hardAlpha" operator="out"/>
<feColorMatrix type="matrix" values="0 0 0 0 0 0 0 0 0 0 0 0 0 0 0 0 0 0 0.25 0"/>
<feBlend mode="normal" in2="BackgroundImageFix" result="effect1_dropShadow_503_62"/>
<feBlend mode="normal" in="SourceGraphic" in2="effect1_dropShadow_503_62" result="shape"/>
</filter>
</defs>
</svg>
